<?xml version="1.0" standalone="no"?>
<svg xmlns="http://www.w3.org/2000/svg" viewBox="0 0 113.219 36" width="113.219" height="36"><g fill="#20c522" color="#20c522" transform="translate(85.219, 4.39224780520126) scale(0.2208603)"><svg width="126.777" height="123.225" x="0.0" y="0.0" viewBox="0 0 126.777 123.225"><g><g><path d="M71.813,90.621h9.283c0.559-2.704,0.861-5.498,0.861-8.376c0-2.873-0.303-5.67-0.861-8.375h-9.283    c-0.688-2.688-1.672-5.261-2.971-7.637l6.412-6.414c-3.094-4.722-7.129-8.757-11.846-11.849l-6.029,6.028    c-2.477-1.577-5.162-2.868-8.023-3.76v-8.11c-2.705-0.563-5.506-0.862-8.377-0.862c-2.875,0-5.672,0.3-8.377,0.862v7.307    c-3.271,0.673-6.363,1.82-9.213,3.375l-4.84-4.84c-4.717,3.092-8.756,7.127-11.846,11.849l4.455,4.456    C9.295,67.194,7.891,70.427,7,73.87H0.861C0.301,76.575,0,79.372,0,82.245c0,2.878,0.301,5.672,0.861,8.376H7    c0.891,3.444,2.295,6.671,4.158,9.596l-4.455,4.458c3.094,4.72,7.129,8.748,11.846,11.846l4.84-4.84    c2.85,1.556,5.941,2.703,9.213,3.375v7.308c2.705,0.561,5.502,0.861,8.377,0.861c2.871,0,5.672-0.301,8.377-0.861v-8.108    c2.861-0.894,5.547-2.185,8.023-3.761l6.029,6.026c4.715-3.098,8.752-7.126,11.846-11.846l-6.412-6.414    C70.141,95.881,71.125,93.31,71.813,90.621z M40.979,96.904c-8.094,0-14.658-6.559-14.658-14.659    c0-8.1,6.564-14.656,14.658-14.656c8.096,0,14.658,6.557,14.658,14.656C55.637,90.346,49.074,96.904,40.979,96.904z"></path></g><g><path d="M119.08,37.451h7.043c0.426-2.05,0.654-4.172,0.654-6.354c0-2.181-0.229-4.304-0.654-6.354h-7.043    c-0.523-2.041-1.27-3.992-2.256-5.797l4.865-4.867c-2.348-3.582-5.41-6.644-8.988-8.99l-4.576,4.574    c-1.879-1.196-3.916-2.177-6.088-2.854V0.653C99.984,0.228,97.859,0,95.68,0c-2.182,0-4.303,0.228-6.355,0.653v5.546    C86.842,6.71,84.492,7.58,82.332,8.76L78.66,5.088c-3.58,2.347-6.644,5.408-8.988,8.99l3.379,3.382    c-1.414,2.214-2.48,4.668-3.156,7.282h-4.658c-0.426,2.051-0.654,4.174-0.654,6.354c0,2.183,0.229,4.305,0.654,6.354h4.658    c0.676,2.614,1.742,5.065,3.156,7.283l-3.379,3.383c2.346,3.582,5.408,6.638,8.988,8.988l3.672-3.671    c2.16,1.181,4.51,2.05,6.992,2.561v5.546c2.053,0.424,4.174,0.653,6.355,0.653c2.18,0,4.305-0.229,6.357-0.653v-6.153    c2.172-0.679,4.209-1.658,6.088-2.854l4.576,4.572c3.578-2.35,6.641-5.406,8.988-8.988l-4.865-4.867    C117.81,41.444,118.557,39.492,119.08,37.451z M95.68,42.221c-6.143,0-11.123-4.978-11.123-11.124    c0-6.146,4.98-11.123,11.123-11.123c6.145,0,11.125,4.977,11.125,11.123C106.805,37.243,101.824,42.221,95.68,42.221z"></path></g><g><path d="M59.09,24.216h4.455c0.27-1.297,0.414-2.64,0.414-4.021c0-1.381-0.145-2.724-0.414-4.021H59.09    c-0.332-1.291-0.805-2.526-1.428-3.668l3.078-3.079c-1.484-2.268-3.422-4.204-5.688-5.689l-2.895,2.894    c-1.189-0.757-2.479-1.377-3.852-1.805V0.934c-1.299-0.271-2.645-0.414-4.023-0.414s-2.723,0.144-4.021,0.414v3.509    c-1.57,0.323-3.057,0.874-4.424,1.62l-2.324-2.323c-2.266,1.484-4.205,3.421-5.688,5.689l2.139,2.14    c-0.895,1.4-1.568,2.953-1.996,4.607h-2.947c-0.27,1.297-0.414,2.64-0.414,4.021c0,1.381,0.145,2.724,0.414,4.021h2.947    c0.428,1.654,1.102,3.204,1.996,4.608l-2.139,2.14c1.484,2.268,3.422,4.201,5.688,5.689l2.324-2.323    c1.367,0.746,2.854,1.297,4.424,1.62v3.51c1.299,0.268,2.643,0.413,4.021,0.413s2.725-0.145,4.023-0.413v-3.895    c1.373-0.43,2.662-1.05,3.852-1.807l2.895,2.895c2.264-1.487,4.203-3.421,5.688-5.689l-3.078-3.079    C58.285,26.742,58.758,25.507,59.09,24.216z M44.283,27.233c-3.887,0-7.037-3.149-7.037-7.038c0-3.89,3.15-7.038,7.037-7.038    c3.889,0,7.037,3.148,7.037,7.038C51.32,24.084,48.172,27.233,44.283,27.233z"></path></g><g><path d="M118.482,86.514h4.455c0.269-1.297,0.414-2.64,0.414-4.021c0-1.38-0.145-2.723-0.414-4.021h-4.455    c-0.332-1.29-0.805-2.525-1.43-3.666l3.08-3.081c-1.486-2.267-3.424-4.203-5.689-5.688l-2.893,2.895    c-1.189-0.758-2.48-1.378-3.852-1.805V63.23c-1.301-0.27-2.645-0.414-4.023-0.414c-1.381,0-2.723,0.145-4.023,0.414v3.51    c-1.57,0.322-3.055,0.873-4.424,1.62l-2.322-2.324c-2.266,1.485-4.205,3.422-5.688,5.688l2.139,2.141    c-0.895,1.4-1.57,2.954-1.996,4.607h-2.949c-0.268,1.299-0.414,2.642-0.414,4.021c0,1.381,0.146,2.724,0.414,4.021h2.949    c0.426,1.655,1.102,3.204,1.996,4.608l-2.139,2.14c1.484,2.267,3.422,4.201,5.688,5.688l2.322-2.322    c1.369,0.747,2.854,1.298,4.424,1.62v3.51c1.301,0.268,2.643,0.413,4.023,0.413c1.379,0,2.723-0.146,4.023-0.413v-3.895    c1.371-0.428,2.662-1.048,3.852-1.806l2.893,2.893c2.266-1.486,4.203-3.421,5.689-5.688l-3.08-3.079    C117.678,89.041,118.15,87.806,118.482,86.514z M103.676,89.532c-3.889,0-7.039-3.149-7.039-7.039c0-3.889,3.15-7.038,7.039-7.038    c3.887,0,7.037,3.149,7.037,7.038C110.713,86.383,107.563,89.532,103.676,89.532z"></path></g></g></svg></g><path fill="#000000" fill-rule="nonzero" d="M4.70 17.21L4.70 17.21Q3.38 17.21 2.32 16.55Q1.25 15.89 0.62 14.78Q0 13.68 0 12.31L0 12.31L0.02 4.82Q0.02 3.50 0.64 2.41Q1.25 1.32 2.32 0.66Q3.38 0 4.70 0L4.70 0Q6.02 0 7.08 0.65Q8.14 1.30 8.76 2.39Q9.38 3.48 9.38 4.82L9.38 4.82L9.38 5.93Q9.38 6.02 9.29 6.02L9.29 6.02L6.60 6.02Q6.50 6.02 6.50 5.93L6.50 5.93L6.50 4.82Q6.50 4.03 5.99 3.46Q5.47 2.88 4.70 2.88L4.70 2.88Q3.84 2.88 3.38 3.47Q2.93 4.06 2.93 4.82L2.93 4.82L2.93 12.31Q2.93 13.20 3.44 13.75Q3.96 14.30 4.70 14.30L4.70 14.30Q5.47 14.30 5.99 13.69Q6.50 13.08 6.50 12.31L6.50 12.31L6.50 11.21Q6.50 11.11 6.60 11.11L6.60 11.11L9.31 11.11Q9.41 11.11 9.41 11.21L9.41 11.21L9.41 12.31Q9.41 13.68 8.77 14.78Q8.14 15.89 7.08 16.55Q6.02 17.21 4.70 17.21ZM16.08 17.21L16.08 17.21Q14.54 17.21 13.37 16.55Q12.19 15.89 11.53 14.80Q10.87 13.70 10.87 12.38L10.87 12.38L10.90 4.78Q10.90 3.46 11.56 2.38Q12.22 1.30 13.39 0.65Q14.57 0 16.08 0L16.08 0Q17.62 0 18.77 0.65Q19.92 1.30 20.58 2.38Q21.24 3.46 21.24 4.78L21.24 4.78L21.26 12.38Q21.26 13.70 20.60 14.80Q19.94 15.89 18.78 16.55Q17.62 17.21 16.08 17.21ZM18.36 12.38L18.36 12.38L18.34 4.78Q18.34 3.94 17.71 3.41Q17.09 2.88 16.08 2.88L16.08 2.88Q15.05 2.88 14.42 3.41Q13.80 3.94 13.80 4.78L13.80 4.78L13.80 12.38Q13.80 13.27 14.42 13.79Q15.05 14.30 16.08 14.30L16.08 14.30Q17.09 14.30 17.72 13.79Q18.36 13.27 18.36 12.38ZM28.08 16.97L25.56 16.97Q25.46 16.97 25.44 16.85L25.44 16.85L22.44 0.36Q22.42 0.26 22.54 0.26L22.54 0.26L25.03 0.26Q25.13 0.26 25.15 0.36L25.15 0.36L28.18 16.85Q28.20 16.97 28.08 16.97L28.08 16.97ZM34.99 16.97L32.09 16.97Q31.99 16.97 31.97 16.85L31.97 16.85L29.14 0.36Q29.11 0.26 29.21 0.26L29.21 0.26L31.90 0.26Q31.99 0.26 32.02 0.36L32.02 0.36L33.55 11.21L35.14 0.36Q35.16 0.26 35.28 0.26L35.28 0.26L37.44 0.26Q37.54 0.26 37.56 0.36L37.56 0.36L39.12 11.21L40.68 0.36Q40.70 0.26 40.80 0.26L40.80 0.26L43.46 0.26Q43.58 0.26 43.56 0.36L43.56 0.36L40.70 16.85Q40.68 16.90 40.63 16.93Q40.58 16.97 40.58 16.97L40.58 16.97L37.68 16.97Q37.61 16.97 37.56 16.85L37.56 16.85L36.34 8.23L35.11 16.85Q35.09 16.97 34.99 16.97L34.99 16.97ZM48.94 17.21L48.94 17.21Q47.64 17.21 46.57 16.55Q45.50 15.89 44.86 14.80Q44.21 13.70 44.21 12.38L44.21 12.38L44.23 4.78Q44.23 3.46 44.87 2.38Q45.50 1.30 46.58 0.65Q47.66 0 48.94 0L48.94 0Q50.23 0 51.29 0.65Q52.34 1.30 52.98 2.38Q53.62 3.46 53.62 4.78L53.62 4.78L53.64 12.38Q53.64 13.70 53.00 14.80Q52.37 15.89 51.30 16.55Q50.23 17.21 48.94 17.21ZM48.94 14.30L48.94 14.30Q49.66 14.30 50.20 13.72Q50.74 13.13 50.74 12.38L50.74 12.38L50.71 4.78Q50.71 3.98 50.21 3.43Q49.70 2.88 48.94 2.88L48.94 2.88Q48.19 2.88 47.66 3.42Q47.14 3.96 47.14 4.78L47.14 4.78L47.14 12.38Q47.14 13.18 47.66 13.74Q48.19 14.30 48.94 14.30ZM58.27 16.97L55.56 16.97Q55.46 16.97 55.46 16.85L55.46 16.85L55.51 0.36Q55.51 0.26 55.61 0.26L55.61 0.26L60.46 0.26Q61.75 0.26 62.84 0.90Q63.94 1.54 64.58 2.60Q65.23 3.67 65.23 5.02L65.23 5.02Q65.23 5.90 64.97 6.61Q64.70 7.32 64.34 7.81Q63.98 8.30 63.70 8.54L63.70 8.54Q64.99 9.98 64.99 11.93L64.99 11.93L65.02 16.85Q65.02 16.97 64.90 16.97L64.90 16.97L62.18 16.97Q62.09 16.97 62.09 16.90L62.09 16.90L62.09 11.93Q62.09 11.06 61.48 10.43Q60.86 9.79 59.98 9.79L59.98 9.79L58.39 9.79L58.37 16.85Q58.37 16.97 58.27 16.97L58.27 16.97ZM58.39 3.14L58.39 6.91L60.46 6.91Q61.20 6.91 61.78 6.36Q62.35 5.81 62.35 5.02L62.35 5.02Q62.35 4.25 61.79 3.70Q61.22 3.14 60.46 3.14L60.46 3.14L58.39 3.14ZM69.84 16.97L67.13 16.97Q67.03 16.97 67.03 16.85L67.03 16.85L67.08 0.38Q67.08 0.26 67.18 0.26L67.18 0.26L69.86 0.26Q69.96 0.26 69.96 0.38L69.96 0.38L69.96 6.07L73.73 0.36Q73.80 0.26 73.90 0.26L73.90 0.26L76.66 0.26Q76.75 0.26 76.70 0.36L76.70 0.36L72.55 6.98L77.21 16.87Q77.26 16.97 77.09 16.97L77.09 16.97L74.16 16.97Q74.04 16.97 74.02 16.87L74.02 16.87L70.78 9.82L69.94 11.14L69.94 16.85Q69.94 16.97 69.84 16.97L69.84 16.97Z" transform="translate(0, 9.396)"></path></svg>